<svg width="181" height="118" viewBox="0 0 181 118" fill="none" xmlns="http://www.w3.org/2000/svg">
<g clip-path="url(#clip0_1_276)">
<path d="M53.9339 47.25H126.494L119.461 57.4643H62.849L53.9339 47.25Z" fill="#5A9F5A"/>
<path d="M129.98 84.5822C129.98 88.5323 126.778 91.7337 122.83 91.7337H58.4729C54.5231 91.7337 51.3215 88.5323 51.3215 84.5822V83.8691C51.3215 79.9199 52.7034 76.7176 56.6521 76.7176H124.668C128.618 76.7176 129.98 79.9199 129.98 83.8691V84.5822Z" fill="#D5A473"/>
<path d="M54.7458 60.5485C54.7458 57.6297 57.7176 55.2629 61.3833 55.2629H121.118C124.784 55.2629 127.756 57.6297 127.756 60.5485V60.7023C127.756 63.6232 124.784 65.9891 121.118 65.9891H61.3831C57.7175 65.9891 54.7456 63.6232 54.7456 60.7023V60.5485H54.7458Z" fill="#D4514F"/>
<path d="M90.6515 18C70.7623 18 54.3928 29.3733 52.2749 42.0497H129.026C126.909 29.3733 110.539 18 90.6515 18Z" fill="#DCA06C"/>
<path d="M52.2749 42.0497C52.1211 42.9664 52.0374 43.8885 52.0374 44.8159C52.0374 47.5325 53.552 48.9632 56.1742 48.9632H125.126C127.75 48.9632 129.264 47.5325 129.264 44.8159C129.264 43.8885 129.181 42.9664 129.026 42.0497H52.2749Z" fill="#D5A473"/>
<path d="M77.151 26.9529C78.2044 26.9529 79.0584 26.0989 79.0584 25.0454C79.0584 23.992 78.2044 23.138 77.151 23.138C76.0975 23.138 75.2435 23.992 75.2435 25.0454C75.2435 26.0989 76.0975 26.9529 77.151 26.9529Z" fill="#C38154"/>
<path d="M98.605 31.2435C98.605 32.2965 97.7512 33.1505 96.698 33.1505C95.645 33.1505 94.7899 32.2965 94.7899 31.2435C94.7899 30.1916 95.645 29.3365 96.698 29.3365C97.7511 29.3367 98.605 30.1916 98.605 31.2435Z" fill="#C38154"/>
<path d="M114.338 31.2435C114.338 32.2965 113.484 33.1505 112.431 33.1505C111.378 33.1505 110.523 32.2965 110.523 31.2435C110.523 30.1916 111.378 29.3365 112.431 29.3365C113.484 29.3367 114.338 30.1916 114.338 31.2435Z" fill="#C38154"/>
<path d="M85.7326 30.7673C85.7326 31.8204 84.8787 32.6743 83.8256 32.6743C82.7726 32.6743 81.9187 31.8205 81.9187 30.7673C81.9187 29.7132 82.7726 28.8594 83.8256 28.8594C84.8787 28.8592 85.7326 29.7132 85.7326 30.7673Z" fill="#C38154"/>
<path d="M71.4308 30.7673C71.4308 31.8204 70.5769 32.6743 69.5229 32.6743C68.4699 32.6743 67.6166 31.8205 67.6166 30.7673C67.6166 29.7132 68.4699 28.8594 69.5229 28.8594C70.5769 28.8592 71.4308 29.7132 71.4308 30.7673Z" fill="#C38154"/>
<path d="M91.4536 22.6623C91.4536 23.7153 90.5996 24.5682 89.5464 24.5682C88.4936 24.5682 87.6395 23.7153 87.6395 22.6623C87.6395 21.6093 88.4934 20.7553 89.5464 20.7553C90.5995 20.7553 91.4536 21.6093 91.4536 22.6623Z" fill="#C38154"/>
<path d="M104.802 24.0919C104.802 25.146 103.948 26 102.895 26C101.842 26 100.988 25.146 100.988 24.0919C100.988 23.0399 101.842 22.1849 102.895 22.1849C103.948 22.185 104.802 23.0399 104.802 24.0919Z" fill="#C38154"/>
<path d="M127.755 71.75V71.0369C127.755 68.118 124.784 65.7522 121.118 65.7522H61.3831C57.7175 65.7522 54.7456 68.118 54.7456 71.0369V71.75C54.7456 72.7457 55.0979 73.6743 55.6995 74.4698H126.801C127.403 73.6743 127.755 72.7457 127.755 71.75Z" fill="#987854"/>
<path d="M55.6996 74.4697C56.8621 76.0054 58.9688 77.0357 61.3831 77.0357H121.118C123.532 77.0357 125.64 76.0054 126.801 74.4697H55.6996Z" fill="#8D6B4B"/>
<path d="M51.8838 51.7435C52.2523 51.7446 52.5121 51.7955 52.735 51.8679C52.9302 51.9339 53.1029 52.0185 53.288 52.1418C53.6088 52.3529 53.9677 52.6937 54.3811 53.1634C54.6911 53.5151 55.0283 53.9328 55.4227 54.3832C56.0136 55.0541 56.7383 55.8171 57.7589 56.4394C58.2674 56.7479 58.8488 57.0109 59.4861 57.1906C60.1235 57.3703 60.8141 57.4643 61.5359 57.4643C62.374 57.4654 63.1701 57.3377 63.8897 57.0975C64.5185 56.8887 65.0845 56.5986 65.5758 56.2717C66.4396 55.6971 67.0779 55.0293 67.6093 54.4296C68.0077 53.9762 68.3485 53.5563 68.6603 53.2003C69.1289 52.6634 69.5245 52.2933 69.88 52.0813C70.0597 51.973 70.2306 51.8961 70.4331 51.8389C70.6349 51.7826 70.8714 51.7436 71.1895 51.7436C71.5585 51.7448 71.8178 51.7957 72.0412 51.8681C72.2364 51.9341 72.4086 52.0186 72.5942 52.142C72.9156 52.353 73.2739 52.6939 73.6866 53.1636C73.9967 53.5153 74.3345 53.933 74.7285 54.3833C75.3204 55.0542 76.0445 55.8172 77.0661 56.4396C77.5736 56.748 78.155 57.011 78.7934 57.1907C79.4308 57.3704 80.1214 57.4644 80.8432 57.4644C81.6808 57.4655 82.4775 57.3379 83.1961 57.0977C83.8258 56.8888 84.392 56.5988 84.8833 56.2719C85.7469 55.6973 86.3845 55.0294 86.9159 54.4298C87.3153 53.9764 87.655 53.5565 87.9678 53.2004C88.4364 52.6636 88.8325 52.2935 89.1875 52.0814C89.3672 51.9731 89.5381 51.8963 89.7405 51.8391C89.943 51.7827 90.1789 51.7438 90.497 51.7438C90.866 51.7449 91.1246 51.7959 91.3487 51.8682C91.5445 51.9342 91.7167 52.0188 91.9017 52.1421C92.2231 52.3532 92.5814 52.694 92.9949 53.1638C93.3056 53.5155 93.6431 53.9331 94.037 54.3835C94.6279 55.0544 95.3531 55.8174 96.3736 56.4397C96.8822 56.7482 97.4634 57.0112 98.1009 57.1909C98.7394 57.3706 99.4287 57.4646 100.152 57.4646C100.988 57.4657 101.785 57.3381 102.504 57.0978C103.133 56.889 103.699 56.5989 104.192 56.2721C105.054 55.6974 105.694 55.0296 106.224 54.4299C106.622 53.9765 106.963 53.5566 107.275 53.2006C107.744 52.6637 108.14 52.2936 108.497 52.0816C108.674 51.9733 108.847 51.8964 109.048 51.8393C109.25 51.7829 109.487 51.744 109.805 51.744C110.173 51.7451 110.433 51.796 110.658 51.8684C110.853 51.9344 111.026 52.0199 111.21 52.1423C111.533 52.3534 111.89 52.6942 112.303 53.1649C112.614 53.5156 112.952 53.9344 113.346 54.3837C113.937 55.0546 114.663 55.8175 115.683 56.4399C116.191 56.7484 116.773 57.0113 117.41 57.191C118.049 57.3707 118.738 57.4647 119.461 57.4647C120.299 57.4659 121.096 57.3382 121.814 57.098C122.444 56.8891 123.01 56.5991 123.501 56.2722C124.365 55.6976 125.005 55.0297 125.535 54.4301C125.932 53.9767 126.274 53.5568 126.586 53.2007C127.054 52.6639 127.45 52.2938 127.806 52.0817C127.985 51.9735 128.156 51.8966 128.359 51.8404C128.562 51.783 128.798 51.7441 129.117 51.7441C130.433 51.7441 131.5 50.677 131.5 49.36C131.5 48.044 130.433 46.9769 129.117 46.9769C128.277 46.9758 127.482 47.1046 126.762 47.3437C126.132 47.5514 125.567 47.8426 125.075 48.1706C124.212 48.7442 123.574 49.4108 123.042 50.0125C122.644 50.4638 122.303 50.8847 121.99 51.2398C121.523 51.7778 121.126 52.149 120.771 52.361C120.59 52.4671 120.419 52.5451 120.218 52.6022C120.015 52.6586 119.778 52.6964 119.461 52.6975C119.092 52.6964 118.833 52.6466 118.609 52.5731C118.414 52.5081 118.241 52.4214 118.056 52.2992C117.734 52.0883 117.375 51.7462 116.962 51.2765C116.652 50.9259 116.314 50.5082 115.92 50.0569C115.329 49.3869 114.604 48.6228 113.583 48.0027C113.074 47.6943 112.494 47.4302 111.855 47.2506C111.218 47.0709 110.527 46.9758 109.805 46.9769C108.967 46.9758 108.171 47.1046 107.452 47.3437C106.822 47.5514 106.256 47.8426 105.763 48.1706C104.901 48.7442 104.263 49.4108 103.732 50.0125C103.333 50.4638 102.993 50.8847 102.68 51.2398C102.211 51.7778 101.816 52.149 101.46 52.361C101.279 52.4671 101.11 52.5451 100.907 52.6022C100.706 52.6586 100.468 52.6964 100.152 52.6975C99.7828 52.6964 99.523 52.6466 99.3001 52.5731C99.1031 52.5081 98.9311 52.4214 98.745 52.2992C98.4247 52.0883 98.0663 51.7462 97.6529 51.2765C97.3433 50.9259 97.0057 50.5082 96.6108 50.0578C96.0198 49.3869 95.2957 48.6228 94.2742 48.0026C93.7645 47.6941 93.1855 47.43 92.547 47.2505C91.9095 47.0708 91.2189 46.9756 90.4971 46.9768C89.6595 46.9756 88.8629 47.1044 88.1443 47.3435C87.5145 47.5512 86.9473 47.8424 86.4561 48.1704C85.5936 48.7441 84.9549 49.4107 84.4225 50.0124C84.0254 50.4637 83.6855 50.8846 83.3729 51.2396C82.9043 51.7776 82.508 52.1488 82.152 52.3609C81.9723 52.4669 81.8026 52.5449 81.6001 52.6021C81.3967 52.6585 81.1606 52.6963 80.8435 52.6974C80.4745 52.6963 80.2148 52.6464 79.9907 52.5739C79.796 52.5079 79.6228 52.4213 79.4388 52.2991C79.1174 52.0881 78.7591 51.746 78.3456 51.2763C78.035 50.9257 77.6974 50.508 77.3034 50.0577C76.7126 49.3868 75.9874 48.6227 74.9669 48.0024C74.4583 47.6939 73.8771 47.4298 73.2396 47.2503C72.6022 47.0706 71.9118 46.9755 71.1898 46.9766C70.3511 46.9755 69.5562 47.1042 68.836 47.3434C68.2061 47.5511 67.6411 47.8422 67.1487 48.1702C66.2863 48.7439 65.6476 49.4105 65.1162 50.0122C64.718 50.4635 64.3776 50.8844 64.0654 51.2395C63.5973 51.7774 63.2012 52.1487 62.8457 52.3607C62.666 52.4668 62.4944 52.5447 62.2926 52.6019C62.0907 52.6583 61.8533 52.6961 61.5362 52.6972C61.1682 52.6961 60.9086 52.6463 60.685 52.5737C60.4896 52.5078 60.3171 52.4211 60.1325 52.2989C59.811 52.088 59.4523 51.748 59.0394 51.2761C58.7298 50.9256 58.3917 50.5079 57.9984 50.0575C57.4069 49.3866 56.6817 48.6236 55.6612 48.0022C55.1526 47.6938 54.5725 47.4297 53.9346 47.2501C53.2971 47.0704 52.6061 46.9753 51.8842 46.9764C50.5676 46.9763 49.5 48.0432 49.5 49.3594C49.5 50.6764 50.5676 51.7435 51.8838 51.7435Z" fill="#66A868"/>
<g opacity="0.1">
<path d="M125.535 54.4296C125.932 53.9762 126.274 53.5563 126.585 53.2003C127.054 52.6634 127.45 52.2933 127.806 52.0812C127.985 51.973 128.156 51.8961 128.359 51.8399C128.562 51.7826 128.798 51.7436 129.117 51.7436C130.433 51.7436 131.5 50.6765 131.5 49.3596C131.5 48.0435 130.433 46.9764 129.117 46.9764C129.019 46.9764 128.926 46.984 128.831 46.9872C129.116 46.393 129.264 45.6679 129.264 44.8161C129.264 43.8886 129.181 42.9666 129.026 42.0499C126.909 29.3733 110.539 18 90.6515 18V91.7337H122.83C126.778 91.7337 129.98 88.5323 129.98 84.5822V83.8691C129.98 79.9199 128.618 76.7176 124.668 76.7176H123.345C124.794 76.3041 126.017 75.5065 126.801 74.4698C127.403 73.6743 127.755 72.7457 127.755 71.75V71.0369C127.755 68.499 125.508 66.3798 122.511 65.8702C125.507 65.3604 127.755 63.2414 127.755 60.7025V60.5487C127.755 58.4859 126.266 56.7014 124.1 55.8313C124.673 55.3712 125.134 54.8809 125.535 54.4296Z" fill="#512411"/>
</g>
</g>
<defs>
<clipPath id="clip0_1_276">
<rect width="82" height="82" fill="white" transform="translate(49.5 18)"/>
</clipPath>
</defs>
</svg>
