<svg width="181" height="118" viewBox="0 0 181 118" fill="none" xmlns="http://www.w3.org/2000/svg">
<g clip-path="url(#clip0_1_272)">
<path d="M121.944 35.905C118.657 39.1923 112.655 40.5586 110.797 38.7009C108.94 36.8433 110.306 30.8411 113.593 27.5539C116.881 24.2666 125.687 23.8113 125.687 23.8113C125.687 23.8113 125.232 32.6178 121.944 35.905Z" fill="#FFDC35"/>
<path d="M125.687 23.8135L110.799 38.7019C112.657 40.5582 118.658 39.1917 121.944 35.905C125.215 32.6344 125.682 23.9015 125.687 23.8135Z" fill="#FFAE33"/>
<path d="M115.302 51.1469C110.653 51.1469 105.442 47.8688 105.442 45.2418C105.442 42.6148 110.653 39.3367 115.302 39.3367C119.95 39.3367 126.499 45.2418 126.499 45.2418C126.499 45.2418 119.951 51.1469 115.302 51.1469Z" fill="#FFAE33"/>
<path d="M98.3525 34.1978C98.3525 38.8467 101.631 44.057 104.258 44.057C106.885 44.057 110.163 38.8466 110.163 34.1978C110.163 29.549 104.258 23 104.258 23C104.258 23 98.3525 29.549 98.3525 34.1978Z" fill="#FFDC35"/>
<path d="M89.233 43.3175C89.233 47.9664 92.5111 53.1767 95.1381 53.1767C97.7651 53.1767 101.043 47.9663 101.043 43.3175C101.043 38.6687 95.1381 32.1195 95.1381 32.1195C95.1381 32.1195 89.233 38.6686 89.233 43.3175Z" fill="#FFDC35"/>
<path d="M55.1915 94.3091C54.2701 93.3877 54.2701 91.894 55.1915 90.9728L111.418 34.746C112.339 33.8246 113.833 33.8246 114.754 34.746C115.676 35.6674 115.676 37.1611 114.754 38.0823L58.5279 94.3091C57.6066 95.2302 56.1127 95.2302 55.1915 94.3091Z" fill="#F29C2A"/>
<path d="M106.182 60.2665C101.533 60.2665 96.3228 56.9884 96.3228 54.3614C96.3228 51.7344 101.533 48.4563 106.182 48.4563C110.831 48.4563 117.38 54.3614 117.38 54.3614C117.38 54.3614 110.831 60.2665 106.182 60.2665Z" fill="#FFAE33"/>
<path d="M97.0623 69.3862C92.4134 69.3862 87.2031 66.1081 87.2031 63.4811C87.2031 60.854 92.4136 57.5759 97.0623 57.5759C101.711 57.5759 108.26 63.4811 108.26 63.4811C108.26 63.4811 101.711 69.3862 97.0623 69.3862Z" fill="#FFAE33"/>
<path d="M80.1135 52.4371C80.1135 57.086 83.3916 62.2963 86.0187 62.2963C88.6457 62.2963 91.9238 57.0859 91.9238 52.4371C91.9238 47.7883 86.0187 41.2393 86.0187 41.2393C86.0187 41.2393 80.1135 47.788 80.1135 52.4371Z" fill="#FFDC35"/>
<path d="M87.8316 78.6169C83.1827 78.6169 77.9724 75.3388 77.9724 72.7118C77.9724 70.0848 83.1828 66.8066 87.8316 66.8066C92.4804 66.8066 99.0295 72.7118 99.0295 72.7118C99.0295 72.7118 92.4807 78.6169 87.8316 78.6169Z" fill="#FFAE33"/>
<path d="M70.8826 61.6676C70.8826 66.3165 74.1605 71.5268 76.7877 71.5268C79.4149 71.5268 82.6928 66.3163 82.6928 61.6676C82.6928 57.0188 76.7877 50.4697 76.7877 50.4697C76.7877 50.4697 70.8826 57.0188 70.8826 61.6676Z" fill="#FFDC35"/>
<path d="M78.4679 87.9807C73.8189 87.9807 68.6086 84.7026 68.6086 82.0755C68.6086 79.4485 73.8191 76.1704 78.4679 76.1704C83.1166 76.1704 89.6657 82.0755 89.6657 82.0755C89.6657 82.0755 83.1168 87.9807 78.4679 87.9807Z" fill="#FFAE33"/>
<path d="M61.5188 71.0316C61.5188 75.6805 64.7968 80.8908 67.4239 80.8908C70.0511 80.8908 73.329 75.6804 73.329 71.0316C73.329 66.3828 67.4239 59.8337 67.4239 59.8337C67.4239 59.8337 61.5188 66.3827 61.5188 71.0316Z" fill="#FFDC35"/>
<path d="M62 63.3125C62 55.956 64.9084 49.2788 69.6382 44.368C69.7352 44.2278 69.8459 44.0949 69.9704 43.9704C70.0948 43.8459 70.2278 43.7352 70.3675 43.6383C75.2788 38.9085 81.956 36 89.3125 36C104.397 36 116.625 48.2282 116.625 63.3125C116.625 78.3968 104.397 90.625 89.3125 90.625C74.2282 90.625 62 78.3968 62 63.3125ZM76.2343 46.1676L106.457 76.3907C109.229 72.7632 110.875 68.23 110.875 63.3125C110.875 51.4038 101.221 41.75 89.3125 41.75C84.5916 41.75 80.2251 43.2671 76.6739 45.8404L76.2343 46.1676ZM67.75 63.3125C67.75 75.2212 77.4038 84.875 89.3125 84.875C94.23 84.875 98.7632 83.2288 102.391 80.4574L72.1676 50.2343C69.3962 53.8618 67.75 58.395 67.75 63.3125Z" fill="#FF4646"/>
</g>
<defs>
<clipPath id="clip0_1_272">
<rect width="72" height="72" fill="white" transform="translate(54.5 23)"/>
</clipPath>
</defs>
</svg>
